<mxfile host="app.diagrams.net" modified="2024-02-10T17:09:43.157Z" agent="Mozilla/5.0 (Windows NT 10.0; Win64; x64) AppleWebKit/537.36 (KHTML, like Gecko) Chrome/121.0.0.0 Safari/537.36" etag="w9NbN1v_nPyOqSmaTaND" version="23.1.2" type="github">
  <diagram id="C5RBs43oDa-KdzZeNtuy" name="Page-1">
    <mxGraphModel dx="4689" dy="1829" grid="1" gridSize="12" guides="1" tooltips="1" connect="1" arrows="1" fold="1" page="0" pageScale="1" pageWidth="827" pageHeight="1169" math="0" shadow="0">
      <root>
        <mxCell id="WIyWlLk6GJQsqaUBKTNV-0" />
        <mxCell id="WIyWlLk6GJQsqaUBKTNV-1" parent="WIyWlLk6GJQsqaUBKTNV-0" />
        <mxCell id="a6ORK_PbyxC4o6mHiydJ-0" value="Abstract User" style="swimlane;fontStyle=1;align=center;verticalAlign=top;childLayout=stackLayout;horizontal=1;startSize=26;horizontalStack=0;resizeParent=1;resizeParentMax=0;resizeLast=0;collapsible=1;marginBottom=0;whiteSpace=wrap;html=1;" vertex="1" parent="WIyWlLk6GJQsqaUBKTNV-1">
          <mxGeometry x="130" y="120" width="190" height="130" as="geometry" />
        </mxCell>
        <mxCell id="a6ORK_PbyxC4o6mHiydJ-1" value="- username: string" style="text;strokeColor=none;fillColor=none;align=left;verticalAlign=top;spacingLeft=4;spacingRight=4;overflow=hidden;rotatable=0;points=[[0,0.5],[1,0.5]];portConstraint=eastwest;whiteSpace=wrap;html=1;" vertex="1" parent="a6ORK_PbyxC4o6mHiydJ-0">
          <mxGeometry y="26" width="190" height="26" as="geometry" />
        </mxCell>
        <mxCell id="a6ORK_PbyxC4o6mHiydJ-17" value="- password: string" style="text;strokeColor=none;fillColor=none;align=left;verticalAlign=top;spacingLeft=4;spacingRight=4;overflow=hidden;rotatable=0;points=[[0,0.5],[1,0.5]];portConstraint=eastwest;whiteSpace=wrap;html=1;" vertex="1" parent="a6ORK_PbyxC4o6mHiydJ-0">
          <mxGeometry y="52" width="190" height="26" as="geometry" />
        </mxCell>
        <mxCell id="a6ORK_PbyxC4o6mHiydJ-2" value="" style="line;strokeWidth=1;fillColor=none;align=left;verticalAlign=middle;spacingTop=-1;spacingLeft=3;spacingRight=3;rotatable=0;labelPosition=right;points=[];portConstraint=eastwest;strokeColor=inherit;" vertex="1" parent="a6ORK_PbyxC4o6mHiydJ-0">
          <mxGeometry y="78" width="190" height="8" as="geometry" />
        </mxCell>
        <mxCell id="a6ORK_PbyxC4o6mHiydJ-3" value="+ getContactDetails(void): string" style="text;strokeColor=none;fillColor=none;align=left;verticalAlign=top;spacingLeft=4;spacingRight=4;overflow=hidden;rotatable=0;points=[[0,0.5],[1,0.5]];portConstraint=eastwest;whiteSpace=wrap;html=1;" vertex="1" parent="a6ORK_PbyxC4o6mHiydJ-0">
          <mxGeometry y="86" width="190" height="44" as="geometry" />
        </mxCell>
        <mxCell id="a6ORK_PbyxC4o6mHiydJ-4" value="Customer&lt;br&gt;" style="swimlane;fontStyle=1;align=center;verticalAlign=top;childLayout=stackLayout;horizontal=1;startSize=26;horizontalStack=0;resizeParent=1;resizeParentMax=0;resizeLast=0;collapsible=1;marginBottom=0;whiteSpace=wrap;html=1;" vertex="1" parent="WIyWlLk6GJQsqaUBKTNV-1">
          <mxGeometry x="-360" y="12" width="210" height="78" as="geometry" />
        </mxCell>
        <mxCell id="a6ORK_PbyxC4o6mHiydJ-5" value="+ current_cart: ShoppingCart" style="text;strokeColor=none;fillColor=none;align=left;verticalAlign=top;spacingLeft=4;spacingRight=4;overflow=hidden;rotatable=0;points=[[0,0.5],[1,0.5]];portConstraint=eastwest;whiteSpace=wrap;html=1;" vertex="1" parent="a6ORK_PbyxC4o6mHiydJ-4">
          <mxGeometry y="26" width="210" height="22" as="geometry" />
        </mxCell>
        <mxCell id="a6ORK_PbyxC4o6mHiydJ-57" value="+ orders: Order[]" style="text;strokeColor=none;fillColor=none;align=left;verticalAlign=top;spacingLeft=4;spacingRight=4;overflow=hidden;rotatable=0;points=[[0,0.5],[1,0.5]];portConstraint=eastwest;whiteSpace=wrap;html=1;" vertex="1" parent="a6ORK_PbyxC4o6mHiydJ-4">
          <mxGeometry y="48" width="210" height="22" as="geometry" />
        </mxCell>
        <mxCell id="a6ORK_PbyxC4o6mHiydJ-6" value="" style="line;strokeWidth=1;fillColor=none;align=left;verticalAlign=middle;spacingTop=-1;spacingLeft=3;spacingRight=3;rotatable=0;labelPosition=right;points=[];portConstraint=eastwest;strokeColor=inherit;" vertex="1" parent="a6ORK_PbyxC4o6mHiydJ-4">
          <mxGeometry y="70" width="210" height="8" as="geometry" />
        </mxCell>
        <mxCell id="a6ORK_PbyxC4o6mHiydJ-8" value="Administrator" style="swimlane;fontStyle=1;align=center;verticalAlign=top;childLayout=stackLayout;horizontal=1;startSize=26;horizontalStack=0;resizeParent=1;resizeParentMax=0;resizeLast=0;collapsible=1;marginBottom=0;whiteSpace=wrap;html=1;" vertex="1" parent="WIyWlLk6GJQsqaUBKTNV-1">
          <mxGeometry x="492" y="336" width="280" height="112" as="geometry" />
        </mxCell>
        <mxCell id="a6ORK_PbyxC4o6mHiydJ-10" value="" style="line;strokeWidth=1;fillColor=none;align=left;verticalAlign=middle;spacingTop=-1;spacingLeft=3;spacingRight=3;rotatable=0;labelPosition=right;points=[];portConstraint=eastwest;strokeColor=inherit;" vertex="1" parent="a6ORK_PbyxC4o6mHiydJ-8">
          <mxGeometry y="26" width="280" height="8" as="geometry" />
        </mxCell>
        <mxCell id="a6ORK_PbyxC4o6mHiydJ-11" value="+ manageInventory(Item[]: items): void" style="text;strokeColor=none;fillColor=none;align=left;verticalAlign=top;spacingLeft=4;spacingRight=4;overflow=hidden;rotatable=0;points=[[0,0.5],[1,0.5]];portConstraint=eastwest;whiteSpace=wrap;html=1;" vertex="1" parent="a6ORK_PbyxC4o6mHiydJ-8">
          <mxGeometry y="34" width="280" height="26" as="geometry" />
        </mxCell>
        <mxCell id="a6ORK_PbyxC4o6mHiydJ-21" value="+ updateItemDetails(Item: item): Item" style="text;strokeColor=none;fillColor=none;align=left;verticalAlign=top;spacingLeft=4;spacingRight=4;overflow=hidden;rotatable=0;points=[[0,0.5],[1,0.5]];portConstraint=eastwest;whiteSpace=wrap;html=1;" vertex="1" parent="a6ORK_PbyxC4o6mHiydJ-8">
          <mxGeometry y="60" width="280" height="26" as="geometry" />
        </mxCell>
        <mxCell id="a6ORK_PbyxC4o6mHiydJ-22" value="+ viewOrders(Order[]: orders): void" style="text;strokeColor=none;fillColor=none;align=left;verticalAlign=top;spacingLeft=4;spacingRight=4;overflow=hidden;rotatable=0;points=[[0,0.5],[1,0.5]];portConstraint=eastwest;whiteSpace=wrap;html=1;" vertex="1" parent="a6ORK_PbyxC4o6mHiydJ-8">
          <mxGeometry y="86" width="280" height="26" as="geometry" />
        </mxCell>
        <mxCell id="a6ORK_PbyxC4o6mHiydJ-12" style="edgeStyle=orthogonalEdgeStyle;rounded=0;orthogonalLoop=1;jettySize=auto;html=1;entryX=-0.015;entryY=1.09;entryDx=0;entryDy=0;entryPerimeter=0;endArrow=block;endFill=0;strokeWidth=1;endSize=20;" edge="1" parent="WIyWlLk6GJQsqaUBKTNV-1" source="a6ORK_PbyxC4o6mHiydJ-4" target="a6ORK_PbyxC4o6mHiydJ-1">
          <mxGeometry relative="1" as="geometry" />
        </mxCell>
        <mxCell id="a6ORK_PbyxC4o6mHiydJ-14" style="edgeStyle=orthogonalEdgeStyle;rounded=0;orthogonalLoop=1;jettySize=auto;html=1;entryX=1.01;entryY=1.115;entryDx=0;entryDy=0;entryPerimeter=0;endArrow=block;endFill=0;endSize=20;" edge="1" parent="WIyWlLk6GJQsqaUBKTNV-1" source="a6ORK_PbyxC4o6mHiydJ-8" target="a6ORK_PbyxC4o6mHiydJ-1">
          <mxGeometry relative="1" as="geometry" />
        </mxCell>
        <mxCell id="a6ORK_PbyxC4o6mHiydJ-27" value="Item" style="swimlane;fontStyle=1;align=center;verticalAlign=top;childLayout=stackLayout;horizontal=1;startSize=26;horizontalStack=0;resizeParent=1;resizeParentMax=0;resizeLast=0;collapsible=1;marginBottom=0;whiteSpace=wrap;html=1;" vertex="1" parent="WIyWlLk6GJQsqaUBKTNV-1">
          <mxGeometry x="-208" y="585" width="160" height="138" as="geometry" />
        </mxCell>
        <mxCell id="a6ORK_PbyxC4o6mHiydJ-28" value="+ id: string" style="text;strokeColor=none;fillColor=none;align=left;verticalAlign=top;spacingLeft=4;spacingRight=4;overflow=hidden;rotatable=0;points=[[0,0.5],[1,0.5]];portConstraint=eastwest;whiteSpace=wrap;html=1;" vertex="1" parent="a6ORK_PbyxC4o6mHiydJ-27">
          <mxGeometry y="26" width="160" height="26" as="geometry" />
        </mxCell>
        <mxCell id="a6ORK_PbyxC4o6mHiydJ-31" value="+ name: string" style="text;strokeColor=none;fillColor=none;align=left;verticalAlign=top;spacingLeft=4;spacingRight=4;overflow=hidden;rotatable=0;points=[[0,0.5],[1,0.5]];portConstraint=eastwest;whiteSpace=wrap;html=1;" vertex="1" parent="a6ORK_PbyxC4o6mHiydJ-27">
          <mxGeometry y="52" width="160" height="26" as="geometry" />
        </mxCell>
        <mxCell id="a6ORK_PbyxC4o6mHiydJ-32" value="+ stock: number" style="text;strokeColor=none;fillColor=none;align=left;verticalAlign=top;spacingLeft=4;spacingRight=4;overflow=hidden;rotatable=0;points=[[0,0.5],[1,0.5]];portConstraint=eastwest;whiteSpace=wrap;html=1;" vertex="1" parent="a6ORK_PbyxC4o6mHiydJ-27">
          <mxGeometry y="78" width="160" height="26" as="geometry" />
        </mxCell>
        <mxCell id="a6ORK_PbyxC4o6mHiydJ-29" value="" style="line;strokeWidth=1;fillColor=none;align=left;verticalAlign=middle;spacingTop=-1;spacingLeft=3;spacingRight=3;rotatable=0;labelPosition=right;points=[];portConstraint=eastwest;strokeColor=inherit;" vertex="1" parent="a6ORK_PbyxC4o6mHiydJ-27">
          <mxGeometry y="104" width="160" height="8" as="geometry" />
        </mxCell>
        <mxCell id="a6ORK_PbyxC4o6mHiydJ-30" value="+ method(type): type" style="text;strokeColor=none;fillColor=none;align=left;verticalAlign=top;spacingLeft=4;spacingRight=4;overflow=hidden;rotatable=0;points=[[0,0.5],[1,0.5]];portConstraint=eastwest;whiteSpace=wrap;html=1;" vertex="1" parent="a6ORK_PbyxC4o6mHiydJ-27">
          <mxGeometry y="112" width="160" height="26" as="geometry" />
        </mxCell>
        <mxCell id="a6ORK_PbyxC4o6mHiydJ-46" style="edgeStyle=orthogonalEdgeStyle;rounded=0;orthogonalLoop=1;jettySize=auto;html=1;exitX=0.5;exitY=0;exitDx=0;exitDy=0;entryX=0.979;entryY=0.23;entryDx=0;entryDy=0;endArrow=diamondThin;endFill=1;endSize=20;entryPerimeter=0;" edge="1" parent="WIyWlLk6GJQsqaUBKTNV-1" source="a6ORK_PbyxC4o6mHiydJ-36" target="a6ORK_PbyxC4o6mHiydJ-6">
          <mxGeometry relative="1" as="geometry">
            <mxPoint x="50" y="379" as="targetPoint" />
            <Array as="points">
              <mxPoint x="269" y="360" />
              <mxPoint x="96" y="360" />
              <mxPoint x="96" y="382" />
            </Array>
          </mxGeometry>
        </mxCell>
        <mxCell id="a6ORK_PbyxC4o6mHiydJ-36" value="Shopping Cart" style="swimlane;fontStyle=1;align=center;verticalAlign=top;childLayout=stackLayout;horizontal=1;startSize=26;horizontalStack=0;resizeParent=1;resizeParentMax=0;resizeLast=0;collapsible=1;marginBottom=0;whiteSpace=wrap;html=1;" vertex="1" parent="WIyWlLk6GJQsqaUBKTNV-1">
          <mxGeometry x="300" y="720" width="250" height="188" as="geometry" />
        </mxCell>
        <mxCell id="a6ORK_PbyxC4o6mHiydJ-37" value="- items_in_cart: Item[]" style="text;strokeColor=none;fillColor=none;align=left;verticalAlign=top;spacingLeft=4;spacingRight=4;overflow=hidden;rotatable=0;points=[[0,0.5],[1,0.5]];portConstraint=eastwest;whiteSpace=wrap;html=1;" vertex="1" parent="a6ORK_PbyxC4o6mHiydJ-36">
          <mxGeometry y="26" width="250" height="26" as="geometry" />
        </mxCell>
        <mxCell id="a6ORK_PbyxC4o6mHiydJ-40" value="" style="line;strokeWidth=1;fillColor=none;align=left;verticalAlign=middle;spacingTop=-1;spacingLeft=3;spacingRight=3;rotatable=0;labelPosition=right;points=[];portConstraint=eastwest;strokeColor=inherit;" vertex="1" parent="a6ORK_PbyxC4o6mHiydJ-36">
          <mxGeometry y="52" width="250" height="8" as="geometry" />
        </mxCell>
        <mxCell id="a6ORK_PbyxC4o6mHiydJ-41" value="+ add_to_cart(item: Item): void" style="text;strokeColor=none;fillColor=none;align=left;verticalAlign=top;spacingLeft=4;spacingRight=4;overflow=hidden;rotatable=0;points=[[0,0.5],[1,0.5]];portConstraint=eastwest;whiteSpace=wrap;html=1;" vertex="1" parent="a6ORK_PbyxC4o6mHiydJ-36">
          <mxGeometry y="60" width="250" height="32" as="geometry" />
        </mxCell>
        <mxCell id="a6ORK_PbyxC4o6mHiydJ-53" value="&#xa;&lt;span style=&quot;color: rgb(0, 0, 0); font-family: Helvetica; font-size: 12px; font-style: normal; font-variant-ligatures: normal; font-variant-caps: normal; font-weight: 400; letter-spacing: normal; orphans: 2; text-align: left; text-indent: 0px; text-transform: none; widows: 2; word-spacing: 0px; -webkit-text-stroke-width: 0px; background-color: rgb(255, 255, 255); text-decoration-thickness: initial; text-decoration-style: initial; text-decoration-color: initial; float: none; display: inline !important;&quot;&gt;+ remove_from_cart(item: Item): void&lt;/span&gt;&#xa;&#xa;" style="text;strokeColor=none;fillColor=none;align=left;verticalAlign=top;spacingLeft=4;spacingRight=4;overflow=hidden;rotatable=0;points=[[0,0.5],[1,0.5]];portConstraint=eastwest;whiteSpace=wrap;html=1;" vertex="1" parent="a6ORK_PbyxC4o6mHiydJ-36">
          <mxGeometry y="92" width="250" height="48" as="geometry" />
        </mxCell>
        <mxCell id="a6ORK_PbyxC4o6mHiydJ-55" value="+ calculate_total(): number" style="text;strokeColor=none;fillColor=none;align=left;verticalAlign=top;spacingLeft=4;spacingRight=4;overflow=hidden;rotatable=0;points=[[0,0.5],[1,0.5]];portConstraint=eastwest;whiteSpace=wrap;html=1;" vertex="1" parent="a6ORK_PbyxC4o6mHiydJ-36">
          <mxGeometry y="140" width="250" height="48" as="geometry" />
        </mxCell>
        <mxCell id="a6ORK_PbyxC4o6mHiydJ-47" value="0 .. *" style="text;html=1;align=center;verticalAlign=middle;resizable=0;points=[];autosize=1;strokeColor=none;fillColor=none;" vertex="1" parent="WIyWlLk6GJQsqaUBKTNV-1">
          <mxGeometry x="-48" y="624" width="48" height="24" as="geometry" />
        </mxCell>
        <mxCell id="a6ORK_PbyxC4o6mHiydJ-48" value="1" style="text;html=1;align=center;verticalAlign=middle;resizable=0;points=[];autosize=1;strokeColor=none;fillColor=none;" vertex="1" parent="WIyWlLk6GJQsqaUBKTNV-1">
          <mxGeometry x="312" y="684" width="36" height="24" as="geometry" />
        </mxCell>
        <mxCell id="a6ORK_PbyxC4o6mHiydJ-49" value="1" style="text;html=1;align=center;verticalAlign=middle;resizable=0;points=[];autosize=1;strokeColor=none;fillColor=none;" vertex="1" parent="WIyWlLk6GJQsqaUBKTNV-1">
          <mxGeometry x="-146" y="48" width="36" height="24" as="geometry" />
        </mxCell>
        <mxCell id="a6ORK_PbyxC4o6mHiydJ-50" value="0 .. 1" style="text;html=1;align=center;verticalAlign=middle;resizable=0;points=[];autosize=1;strokeColor=none;fillColor=none;" vertex="1" parent="WIyWlLk6GJQsqaUBKTNV-1">
          <mxGeometry x="432" y="684" width="48" height="24" as="geometry" />
        </mxCell>
        <mxCell id="a6ORK_PbyxC4o6mHiydJ-56" style="edgeStyle=orthogonalEdgeStyle;rounded=0;orthogonalLoop=1;jettySize=auto;html=1;entryX=0.008;entryY=0.087;entryDx=0;entryDy=0;entryPerimeter=0;endArrow=diamondThin;endFill=0;endSize=20;" edge="1" parent="WIyWlLk6GJQsqaUBKTNV-1" source="a6ORK_PbyxC4o6mHiydJ-31" target="a6ORK_PbyxC4o6mHiydJ-36">
          <mxGeometry relative="1" as="geometry" />
        </mxCell>
        <mxCell id="a6ORK_PbyxC4o6mHiydJ-62" style="edgeStyle=orthogonalEdgeStyle;rounded=0;orthogonalLoop=1;jettySize=auto;html=1;entryX=0;entryY=0.25;entryDx=0;entryDy=0;endArrow=diamondThin;endFill=1;endSize=20;" edge="1" parent="WIyWlLk6GJQsqaUBKTNV-1" source="a6ORK_PbyxC4o6mHiydJ-58" target="a6ORK_PbyxC4o6mHiydJ-4">
          <mxGeometry relative="1" as="geometry" />
        </mxCell>
        <mxCell id="a6ORK_PbyxC4o6mHiydJ-58" value="Order" style="swimlane;fontStyle=1;align=center;verticalAlign=top;childLayout=stackLayout;horizontal=1;startSize=26;horizontalStack=0;resizeParent=1;resizeParentMax=0;resizeLast=0;collapsible=1;marginBottom=0;whiteSpace=wrap;html=1;" vertex="1" parent="WIyWlLk6GJQsqaUBKTNV-1">
          <mxGeometry x="-852" y="228" width="210" height="122" as="geometry" />
        </mxCell>
        <mxCell id="a6ORK_PbyxC4o6mHiydJ-59" value="+ total_cost: number" style="text;strokeColor=none;fillColor=none;align=left;verticalAlign=top;spacingLeft=4;spacingRight=4;overflow=hidden;rotatable=0;points=[[0,0.5],[1,0.5]];portConstraint=eastwest;whiteSpace=wrap;html=1;" vertex="1" parent="a6ORK_PbyxC4o6mHiydJ-58">
          <mxGeometry y="26" width="210" height="22" as="geometry" />
        </mxCell>
        <mxCell id="a6ORK_PbyxC4o6mHiydJ-60" value="+ date: Date" style="text;strokeColor=none;fillColor=none;align=left;verticalAlign=top;spacingLeft=4;spacingRight=4;overflow=hidden;rotatable=0;points=[[0,0.5],[1,0.5]];portConstraint=eastwest;whiteSpace=wrap;html=1;" vertex="1" parent="a6ORK_PbyxC4o6mHiydJ-58">
          <mxGeometry y="48" width="210" height="22" as="geometry" />
        </mxCell>
        <mxCell id="a6ORK_PbyxC4o6mHiydJ-63" value="+ items_purchased: Item[]&lt;br&gt;" style="text;strokeColor=none;fillColor=none;align=left;verticalAlign=top;spacingLeft=4;spacingRight=4;overflow=hidden;rotatable=0;points=[[0,0.5],[1,0.5]];portConstraint=eastwest;whiteSpace=wrap;html=1;" vertex="1" parent="a6ORK_PbyxC4o6mHiydJ-58">
          <mxGeometry y="70" width="210" height="22" as="geometry" />
        </mxCell>
        <mxCell id="a6ORK_PbyxC4o6mHiydJ-65" value="+ customer_details: string" style="text;strokeColor=none;fillColor=none;align=left;verticalAlign=top;spacingLeft=4;spacingRight=4;overflow=hidden;rotatable=0;points=[[0,0.5],[1,0.5]];portConstraint=eastwest;whiteSpace=wrap;html=1;" vertex="1" parent="a6ORK_PbyxC4o6mHiydJ-58">
          <mxGeometry y="92" width="210" height="22" as="geometry" />
        </mxCell>
        <mxCell id="a6ORK_PbyxC4o6mHiydJ-61" value="" style="line;strokeWidth=1;fillColor=none;align=left;verticalAlign=middle;spacingTop=-1;spacingLeft=3;spacingRight=3;rotatable=0;labelPosition=right;points=[];portConstraint=eastwest;strokeColor=inherit;" vertex="1" parent="a6ORK_PbyxC4o6mHiydJ-58">
          <mxGeometry y="114" width="210" height="8" as="geometry" />
        </mxCell>
        <mxCell id="a6ORK_PbyxC4o6mHiydJ-69" value="1 .. *" style="text;html=1;align=center;verticalAlign=middle;resizable=0;points=[];autosize=1;strokeColor=none;fillColor=none;" vertex="1" parent="WIyWlLk6GJQsqaUBKTNV-1">
          <mxGeometry x="-256" y="601" width="48" height="24" as="geometry" />
        </mxCell>
        <mxCell id="a6ORK_PbyxC4o6mHiydJ-70" value="1" style="text;html=1;align=center;verticalAlign=middle;resizable=0;points=[];autosize=1;strokeColor=none;fillColor=none;" vertex="1" parent="WIyWlLk6GJQsqaUBKTNV-1">
          <mxGeometry x="-744" y="360" width="36" height="24" as="geometry" />
        </mxCell>
        <mxCell id="a6ORK_PbyxC4o6mHiydJ-73" value="1" style="text;html=1;align=center;verticalAlign=middle;resizable=0;points=[];autosize=1;strokeColor=none;fillColor=none;" vertex="1" parent="WIyWlLk6GJQsqaUBKTNV-1">
          <mxGeometry x="-408" width="36" height="24" as="geometry" />
        </mxCell>
        <mxCell id="a6ORK_PbyxC4o6mHiydJ-74" value="0 .. *" style="text;html=1;align=center;verticalAlign=middle;resizable=0;points=[];autosize=1;strokeColor=none;fillColor=none;" vertex="1" parent="WIyWlLk6GJQsqaUBKTNV-1">
          <mxGeometry x="-640" y="253" width="48" height="24" as="geometry" />
        </mxCell>
        <mxCell id="a6ORK_PbyxC4o6mHiydJ-68" style="edgeStyle=orthogonalEdgeStyle;rounded=0;orthogonalLoop=1;jettySize=auto;html=1;exitX=0;exitY=0.5;exitDx=0;exitDy=0;endArrow=diamondThin;endFill=1;endSize=20;entryX=0.488;entryY=0.833;entryDx=0;entryDy=0;entryPerimeter=0;" edge="1" parent="WIyWlLk6GJQsqaUBKTNV-1" source="a6ORK_PbyxC4o6mHiydJ-28" target="a6ORK_PbyxC4o6mHiydJ-61">
          <mxGeometry relative="1" as="geometry">
            <mxPoint x="-336" y="600" as="targetPoint" />
            <Array as="points">
              <mxPoint x="-264" y="624" />
              <mxPoint x="-264" y="631" />
              <mxPoint x="-540" y="631" />
              <mxPoint x="-540" y="600" />
              <mxPoint x="-749" y="600" />
            </Array>
          </mxGeometry>
        </mxCell>
        <mxCell id="a6ORK_PbyxC4o6mHiydJ-75" style="edgeStyle=orthogonalEdgeStyle;rounded=0;orthogonalLoop=1;jettySize=auto;html=1;endArrow=none;endFill=0;" edge="1" parent="WIyWlLk6GJQsqaUBKTNV-1" source="a6ORK_PbyxC4o6mHiydJ-65" target="a6ORK_PbyxC4o6mHiydJ-22">
          <mxGeometry relative="1" as="geometry" />
        </mxCell>
        <mxCell id="a6ORK_PbyxC4o6mHiydJ-92" style="edgeStyle=orthogonalEdgeStyle;rounded=0;orthogonalLoop=1;jettySize=auto;html=1;entryX=1;entryY=0.5;entryDx=0;entryDy=0;endArrow=none;endFill=0;" edge="1" parent="WIyWlLk6GJQsqaUBKTNV-1" source="a6ORK_PbyxC4o6mHiydJ-82" target="a6ORK_PbyxC4o6mHiydJ-21">
          <mxGeometry relative="1" as="geometry" />
        </mxCell>
        <mxCell id="a6ORK_PbyxC4o6mHiydJ-82" value="Inventory" style="swimlane;fontStyle=1;align=center;verticalAlign=top;childLayout=stackLayout;horizontal=1;startSize=26;horizontalStack=0;resizeParent=1;resizeParentMax=0;resizeLast=0;collapsible=1;marginBottom=0;whiteSpace=wrap;html=1;" vertex="1" parent="WIyWlLk6GJQsqaUBKTNV-1">
          <mxGeometry x="816" y="588" width="408" height="138" as="geometry" />
        </mxCell>
        <mxCell id="a6ORK_PbyxC4o6mHiydJ-83" value="- total_items_in_stock: number" style="text;strokeColor=none;fillColor=none;align=left;verticalAlign=top;spacingLeft=4;spacingRight=4;overflow=hidden;rotatable=0;points=[[0,0.5],[1,0.5]];portConstraint=eastwest;whiteSpace=wrap;html=1;" vertex="1" parent="a6ORK_PbyxC4o6mHiydJ-82">
          <mxGeometry y="26" width="408" height="26" as="geometry" />
        </mxCell>
        <mxCell id="a6ORK_PbyxC4o6mHiydJ-86" value="" style="line;strokeWidth=1;fillColor=none;align=left;verticalAlign=middle;spacingTop=-1;spacingLeft=3;spacingRight=3;rotatable=0;labelPosition=right;points=[];portConstraint=eastwest;strokeColor=inherit;" vertex="1" parent="a6ORK_PbyxC4o6mHiydJ-82">
          <mxGeometry y="52" width="408" height="8" as="geometry" />
        </mxCell>
        <mxCell id="a6ORK_PbyxC4o6mHiydJ-87" value="+ add_item_to_inventory(Item: Item): void" style="text;strokeColor=none;fillColor=none;align=left;verticalAlign=top;spacingLeft=4;spacingRight=4;overflow=hidden;rotatable=0;points=[[0,0.5],[1,0.5]];portConstraint=eastwest;whiteSpace=wrap;html=1;" vertex="1" parent="a6ORK_PbyxC4o6mHiydJ-82">
          <mxGeometry y="60" width="408" height="26" as="geometry" />
        </mxCell>
        <mxCell id="a6ORK_PbyxC4o6mHiydJ-89" value="+ remove_item_from_inventory(item: Item): void" style="text;strokeColor=none;fillColor=none;align=left;verticalAlign=top;spacingLeft=4;spacingRight=4;overflow=hidden;rotatable=0;points=[[0,0.5],[1,0.5]];portConstraint=eastwest;whiteSpace=wrap;html=1;" vertex="1" parent="a6ORK_PbyxC4o6mHiydJ-82">
          <mxGeometry y="86" width="408" height="26" as="geometry" />
        </mxCell>
        <mxCell id="a6ORK_PbyxC4o6mHiydJ-90" value="+ retrieve_all_items(): Items[]" style="text;strokeColor=none;fillColor=none;align=left;verticalAlign=top;spacingLeft=4;spacingRight=4;overflow=hidden;rotatable=0;points=[[0,0.5],[1,0.5]];portConstraint=eastwest;whiteSpace=wrap;html=1;" vertex="1" parent="a6ORK_PbyxC4o6mHiydJ-82">
          <mxGeometry y="112" width="408" height="26" as="geometry" />
        </mxCell>
        <mxCell id="a6ORK_PbyxC4o6mHiydJ-93" style="edgeStyle=orthogonalEdgeStyle;rounded=0;orthogonalLoop=1;jettySize=auto;html=1;entryX=0.75;entryY=0;entryDx=0;entryDy=0;endArrow=none;endFill=0;" edge="1" parent="WIyWlLk6GJQsqaUBKTNV-1" source="a6ORK_PbyxC4o6mHiydJ-83" target="a6ORK_PbyxC4o6mHiydJ-4">
          <mxGeometry relative="1" as="geometry">
            <mxPoint x="1236" y="-161.33331298828125" as="targetPoint" />
            <Array as="points">
              <mxPoint x="1020" y="-8" />
              <mxPoint x="-202" y="-8" />
            </Array>
          </mxGeometry>
        </mxCell>
      </root>
    </mxGraphModel>
  </diagram>
</mxfile>
